
<svg id="vnpay-loading" xmlns="http://www.w3.org/2000/svg" xmlns:xlink="http://www.w3.org/1999/xlink" viewBox="0 0 81 81" shape-rendering="geometricPrecision" text-rendering="geometricPrecision"><style><![CDATA[#vnpay-loading-s-g1_tr {animation: vnpay-loading-s-g1_tr__tr 2000ms linear infinite normal forwards}@keyframes vnpay-loading-s-g1_tr__tr { 0% {transform: translate(40.498509px,40.142174px) rotate(0deg)} 100% {transform: translate(40.498509px,40.142174px) rotate(360deg)}}]]></style><g id="vnpay-loading-u-logo" transform="translate(.000001 0)"><path id="vnpay-loading-s-path1" d="M42.4249,34.1626l-2.9718,2.9717-.1486.1486-.9435.9435-.6984.7058-.9435.9436-.1486.1411-.4086.4161-.1486.1411-1.3893,1.3893-.1486.1412c-.406.4054-.866.7529-1.367,1.0327-.2391.1337-.4874.2504-.743.3492-.5754.223-1.1819.3558-1.7979.3937-.3732.0334-.7486.0334-1.1218,0-.8149-.0886-1.6034-.3413-2.318-.7429-.3236-.1675-.6234-.3774-.8915-.6241l-.1709-.1709-5.416-5.468-.1115-.1115c-.0964-.1043-.1811-.2189-.2526-.3417-.1858-.3151-.2833-.6744-.2823-1.0401-.0039-.0569-.0039-.114,0-.1709c0-.0892,0-.1783,0-.26v-.0966c.0726-.2701.199-.5228.3715-.743.0456-.0579.0952-.1125.1486-.1634l.0966-.0966l5.832-5.7578l3.4919-3.4844c.3715-.3721.8706-.5892,1.3962-.6071s1.0383.1646,1.4344.5106l9.6508,9.6508Z" fill="#005baa"/><path id="vnpay-loading-s-path2" d="M30.5675,46.8148c.4258.199.8897.3029,1.3596.3046l.156-.0148c.1774-.0081.3538-.0305.5275-.0669.3035-.0621.598-.162.8767-.2972.5011-.2422.9602-.5632,1.3596-.9509l.1783-.1858l2.9346-2.8752l7.9346-7.9048.0446-.052l4.569-4.4577c.2174-.2121.4759-.3775.7595-.4861.2693-.1031.5559-.1529.8439-.1468l.0014.0014h.0446c-.0154-.0006-.0307-.0011-.046-.0014l-1.3508-1.3507c-.362-.3607-.8522-.5632-1.3633-.5632s-1.0012.2025-1.3632.5632l-.1338.1263-2.4517,2.7266-5.9806,5.9435-.1486.1486-.9659.8915-.6983.7058-.9436.9435-.1485.1412-.4087.416-.1486.1412-1.3893,1.3893-.1485.1411c-.4061.4055-.8661.753-1.3671,1.0327-.2391.1338-.4873.2505-.7429.3492-.5755.223-1.1819.3558-1.7979.3938-.3732.0334-.7486.0334-1.1218,0-.8149-.0886-1.6035-.3413-2.318-.743-.3266-.1692-.629-.3816-.899-.6315l-.1709-.1708l2.578,2.6077.5127.5126.0446.052.2748.2675l1.107,1.0995Z" fill="#ed1c24"/><path id="vnpay-loading-s-path3" d="M59.2896,39.8758l.1486-.1486c.3368-.3377.5362-.7884.5595-1.2647s-.1311-.9444-.4332-1.3133c-.0406-.053-.0853-.1027-.1337-.1486l-5.4235-5.4309-.9955-1.003c-.3193-.2129-.7017-.3105-1.084-.2767-.3822.0338-.7415.1969-1.0186.4624l-4.2644,4.1308-.0446.0594-11.211,11.0253-.2006.2154c-.437.4273-.9384.7833-1.4859,1.055-.3177.1578-.655.2728-1.0029.3417-.2053.0455-.4141.0729-.6241.0818h-.156c-.1793-.0001-.3582-.015-.5349-.0446l.1485.156l1.0996,1.107l4.4576,4.4576.1783.104c1.0549,1.0031,2.4262,1.6074,3.8783,1.7091s2.8943-.3056,4.0786-1.1519l.0966-.0668c.2432-.177.4718-.3733.6835-.5869L59.2896,39.8758Z" fill="#ed1c24"/><path id="vnpay-loading-s-path4" d="M38.1901,32.6459c.1046,0,.2054-.0394.2823-.1104.0633-.0742.0968-.1692.094-.2666s-.0415-.1904-.1088-.2609c-1.3793-1.3891-3.2539-2.1734-5.2115-2.1804s-3.8377.764-5.2269,2.1433c-1.3891,1.3792-2.1734,3.2539-2.1804,5.2114-.0069,1.9576.764,3.8377,2.1433,5.2269l1.4859,1.4859c.3632.0335.7288.0335,1.0921,0c.0021-.0148.0021-.0298,0-.0446l-2.0059-2.0208c-1.2325-1.2404-1.9218-2.9196-1.9162-4.6681.0055-1.7486.7055-3.4233,1.9459-4.6558s2.9195-1.9218,4.6681-1.9162c.8658.0028,1.7226.176,2.5214.5099s1.5241.8218,2.1344,1.436c.0768.071.1776.1104.2823.1104Zm2.8009,2.9654l.5572-.5498-.9732-.9881c-.0366-.0366-.08-.0657-.1278-.0855-.0479-.0198-.0991-.03-.1508-.03s-.103.0102-.1508.03-.0913.0489-.1278.0855c-.0367.0366-.0657.08-.0855.1278s-.0301.099-.0301.1508.0102.103.0301.1508.0488.0912.0855.1278l.9732.9807Zm-7.8529,7.5111c-.2388.1322-.4871.2464-.7429.3418l-2.734-2.7341c-.829-.835-1.3406-1.9332-1.4463-3.1051-.1058-1.1718.2007-2.3439.8668-3.3139.06-.0855.1511-.1442.2537-.1636.1027-.0195.2089.0019.296.0596.0426.0297.0788.0675.1067.1112s.0469.0925.0559.1436.0078.1035-.0036.1541-.0325.0985-.0624.1409c-.5614.8187-.8196,1.8076-.7301,2.7963s.5211,1.9152,1.2205,2.6197l2.9197,2.9495Zm6.3373-6.0104l.4086-.4086-3.0906-3.0832c-.6571-.6665-1.4871-1.1364-2.3967-1.3569s-1.8626-.1828-2.7519.1087c-.0544.0113-.1057.0339-.1507.0664s-.0826.0742-.1104.1222-.0451.1015-.0508.1567.0004.111.0178.1637.0457.1012.0832.1422c.0374.0409.0831.0736.134.0957s.1059.0331.1615.0325c.0555-.0007.1102-.0131.1606-.0364.7542-.254,1.5644-.292,2.3391-.1095.7746.1825,1.4827.5782,2.0442,1.1422l3.0684,3.098.1337-.1337Zm-1.2333,1.2407l-.5572.5572-3.0832-3.1055c-.3714-.3044-.8429-.4596-1.3225-.4352s-.933.2265-1.2716.567-.5384.7949-.5601,1.2747c-.0217.4797.136.9504.4425,1.3201l1.9836,1.9985c.0739.0739.1154.1741.1154.2786s-.0415.2047-.1154.2786-.1741.1154-.2786.1154-.2047-.0415-.2786-.1154l-2.0208-1.9985c-.4715-.5203-.7241-1.2025-.7051-1.9045s.308-1.3695.8069-1.8636s1.1692-.7768,1.8713-.789s1.3819.247,1.8977.7236l3.0757,3.098Zm-2.0579,2.058l.4086-.4161-3.0832-3.1055c-.0739-.0739-.1741-.1154-.2786-.1154s-.2047.0415-.2786.1154-.1154.1741-.1154.2786.0415.2047.1154.2786l3.098,3.0907.1338-.1263Z" clip-rule="evenodd" fill="#009edb" fill-rule="evenodd"/></g><g id="vnpay-loading-s-g1_tr" transform="translate(40.498509,40.142174) rotate(0)"><g id="vnpay-loading-s-g1" transform="translate(-40.498508,-40.142174)"><circle id="vnpay-loading-s-circle1" r="40" transform="translate(40 40)" fill="rgba(217,217,217,0)"/><path id="vnpay-loading-s-path5" d="M40,80.22C68.75,79.15,87.54,49,75.2,22.94C71.3393,14.8259,64.9538,8.18091,57,4c8.4723,3.59519,15.4104,10.0554,19.6,18.25c13.74,26.66-6.45,59.24-36.6,58v-.03Z" fill="#005baa"/></g></g></svg>